<svg width="80" height="80" viewBox="0 0 80 80" fill="none" xmlns="http://www.w3.org/2000/svg">
<path d="M40 0C17.9107 0 0 17.9107 0 40C0 62.0893 17.9107 80 40 80C62.0893 80 80 62.0893 80 40C80 17.9107 62.0893 0 40 0ZM37.1429 20.7143C37.1429 20.3214 37.4643 20 37.8571 20H42.1429C42.5357 20 42.8571 20.3214 42.8571 20.7143V45C42.8571 45.3929 42.5357 45.7143 42.1429 45.7143H37.8571C37.4643 45.7143 37.1429 45.3929 37.1429 45V20.7143ZM40 60C38.8785 59.9771 37.8107 59.5155 37.0256 58.7143C36.2406 57.9131 35.8009 56.836 35.8009 55.7143C35.8009 54.5926 36.2406 53.5155 37.0256 52.7143C37.8107 51.9131 38.8785 51.4515 40 51.4286C41.1215 51.4515 42.1893 51.9131 42.9744 52.7143C43.7594 53.5155 44.1991 54.5926 44.1991 55.7143C44.1991 56.836 43.7594 57.9131 42.9744 58.7143C42.1893 59.5155 41.1215 59.9771 40 60Z" fill="#D3F5F7"/>
</svg>
