<svg width="24" height="18" viewBox="0 0 24 18" fill="none" xmlns="http://www.w3.org/2000/svg">
<path d="M12.8581 17.5V12.6429H16.2869L12.0009 7.78571L7.71484 12.6429H11.1437V17.5H6.85763V17.4595C6.71362 17.4676 6.57647 17.5 6.42903 17.5C4.72395 17.5 3.0887 16.8603 1.88302 15.7217C0.677342 14.5831 0 13.0388 0 11.4286C0 8.31352 2.49446 5.77486 5.69526 5.42676C5.97589 4.04133 6.75896 2.79155 7.90978 1.89238C9.06059 0.993209 10.5072 0.500855 12.0009 0.5C13.4947 0.50079 14.9416 0.993086 16.0927 1.89224C17.2438 2.79138 18.0272 4.0412 18.3082 5.42676C21.509 5.77486 24 8.31352 24 11.4286C24 13.0388 23.3227 14.5831 22.117 15.7217C20.9113 16.8603 19.2761 17.5 17.571 17.5C17.427 17.5 17.2881 17.4676 17.1424 17.4595V17.5H12.8581Z" fill="#0333E1"/>
</svg>
